<?xml version="1.0" standalone="no"?>
<!DOCTYPE svg PUBLIC "-//W3C//DTD SVG 20010904//EN"
 "http://www.w3.org/TR/2001/REC-SVG-20010904/DTD/svg10.dtd">
<svg version="1.0" xmlns="http://www.w3.org/2000/svg"
 width="1081.000000pt" height="1081.000000pt" viewBox="0 0 1081.000000 1081.000000"
 preserveAspectRatio="xMidYMid meet">

<g transform="translate(0.000000,1081.000000) scale(0.100000,-0.100000)"
fill="#000000" stroke="none">
<path d="M20 5410 l0 -5400 5395 0 5395 0 0 5400 0 5400 -5395 0 -5395 0 0
-5400z m7770 245 l0 -105 -95 0 -95 0 0 105 0 105 95 0 95 0 0 -105z m1570 0
l0 -105 -700 0 -700 0 0 105 0 105 700 0 700 0 0 -105z m-4222 70 c175 -41
274 -153 288 -326 16 -188 -64 -329 -220 -388 -90 -34 -202 -41 -618 -41
l-398 0 0 -215 0 -215 -95 0 -95 0 0 600 0 600 538 0 c438 0 549 -3 600 -15z
m1920 0 c131 -31 208 -93 237 -189 43 -143 -8 -281 -124 -339 l-49 -24 41 -13
c104 -31 174 -85 206 -160 31 -73 32 -196 1 -267 -29 -67 -99 -133 -176 -164
l-59 -24 -752 -3 -753 -3 0 601 0 600 683 0 c566 0 693 -3 745 -15z m732 -755
l0 -430 -95 0 -95 0 0 430 0 430 95 0 95 0 0 -430z m960 1 l0 -429 -74 -4
c-41 -2 -81 -2 -90 0 -14 3 -16 46 -16 433 l0 429 90 0 90 0 0 -429z m-3443
-299 l162 -127 -145 -3 -145 -3 -152 117 c-84 64 -159 123 -167 130 -12 12 9
14 135 14 l150 0 162 -128z"/>
<path d="M4190 5354 l0 -215 438 3 438 3 60 30 c77 40 108 91 108 180 -1 110
-49 171 -159 200 -49 12 -132 15 -472 15 l-413 0 0 -216z"/>
<path d="M5822 5408 l3 -163 485 -3 c661 -4 763 7 805 88 21 41 19 118 -5 157
-48 79 -84 83 -736 83 l-554 0 2 -162z"/>
<path d="M5820 4890 l0 -180 602 0 c523 0 609 2 659 16 97 27 147 97 136 191
-9 80 -58 122 -166 143 -33 6 -287 10 -642 10 l-589 0 0 -180z"/>
</g>
</svg>
